<svg width="217" height="41" viewBox="0 0 217 41" fill="none" xmlns="http://www.w3.org/2000/svg">
<path d="M18.4926 5.8541C19.0913 4.01147 21.6981 4.01148 22.2969 5.8541L24.5246 12.7105C24.7924 13.5345 25.5603 14.0924 26.4267 14.0924H33.6359C35.5734 14.0924 36.3789 16.5716 34.8115 17.7105L28.9791 21.9479C28.2782 22.4572 27.9848 23.3599 28.2526 24.184L30.4803 31.0403C31.0791 32.8829 28.9701 34.4152 27.4027 33.2764L21.5703 29.0389C20.8693 28.5296 19.9201 28.5296 19.2192 29.0389L13.3868 33.2764C11.8194 34.4152 9.71042 32.8829 10.3091 31.0403L12.5369 24.184C12.8046 23.3599 12.5113 22.4572 11.8103 21.9479L5.97798 17.7104C4.41055 16.5716 5.21611 14.0924 7.15356 14.0924H14.3627C15.2292 14.0924 15.9971 13.5345 16.2649 12.7105L18.4926 5.8541Z" fill="#FFB82F"/>
<path d="M62.5454 5.8541C63.1441 4.01147 65.7509 4.01148 66.3496 5.8541L68.5773 12.7105C68.8451 13.5345 69.613 14.0924 70.4795 14.0924H77.6886C79.6261 14.0924 80.4316 16.5716 78.8642 17.7105L73.0319 21.9479C72.3309 22.4572 72.0376 23.3599 72.3053 24.184L74.5331 31.0403C75.1318 32.8829 73.0228 34.4152 71.4554 33.2764L65.623 29.0389C64.9221 28.5296 63.9729 28.5296 63.2719 29.0389L57.4395 33.2764C55.8721 34.4152 53.7632 32.8829 54.3619 31.0403L56.5896 24.184C56.8574 23.3599 56.5641 22.4572 55.8631 21.9479L50.0307 17.7104C48.4633 16.5716 49.2688 14.0924 51.2063 14.0924H58.4155C59.2819 14.0924 60.0498 13.5345 60.3176 12.7105L62.5454 5.8541Z" fill="#FFB82F"/>
<path d="M106.598 5.8541C107.197 4.01147 109.803 4.01148 110.402 5.8541L112.63 12.7105C112.898 13.5345 113.665 14.0924 114.532 14.0924H121.741C123.679 14.0924 124.484 16.5716 122.917 17.7105L117.084 21.9479C116.383 22.4572 116.09 23.3599 116.358 24.184L118.586 31.0403C119.184 32.8829 117.075 34.4152 115.508 33.2764L109.676 29.0389C108.975 28.5296 108.025 28.5296 107.324 29.0389L101.492 33.2764C99.9246 34.4152 97.8156 32.8829 98.4143 31.0403L100.642 24.184C100.91 23.3599 100.617 22.4572 99.9156 21.9479L94.0832 17.7104C92.5158 16.5716 93.3213 14.0924 95.2588 14.0924H102.468C103.334 14.0924 104.102 13.5345 104.37 12.7105L106.598 5.8541Z" fill="#FFB82F"/>
<path d="M150.651 5.8541C151.249 4.01147 153.856 4.01148 154.455 5.8541L156.683 12.7105C156.95 13.5345 157.718 14.0924 158.585 14.0924H165.794C167.731 14.0924 168.537 16.5716 166.969 17.7105L161.137 21.9479C160.436 22.4572 160.143 23.3599 160.411 24.184L162.638 31.0403C163.237 32.8829 161.128 34.4152 159.561 33.2764L153.728 29.0389C153.027 28.5296 152.078 28.5296 151.377 29.0389L145.545 33.2764C143.977 34.4152 141.868 32.8829 142.467 31.0403L144.695 24.184C144.963 23.3599 144.669 22.4572 143.968 21.9479L138.136 17.7104C136.569 16.5716 137.374 14.0924 139.312 14.0924H146.521C147.387 14.0924 148.155 13.5345 148.423 12.7105L150.651 5.8541Z" fill="#FFB82F"/>
<path d="M194.703 5.8541C195.302 4.01147 197.909 4.01148 198.507 5.8541L200.735 12.7105C201.003 13.5345 201.771 14.0924 202.637 14.0924H209.846C211.784 14.0924 212.589 16.5716 211.022 17.7105L205.19 21.9479C204.489 22.4572 204.195 23.3599 204.463 24.184L206.691 31.0403C207.289 32.8829 205.181 34.4152 203.613 33.2764L197.781 29.0389C197.08 28.5296 196.131 28.5296 195.43 29.0389L189.597 33.2764C188.03 34.4152 185.921 32.8829 186.52 31.0403L188.747 24.184C189.015 23.3599 188.722 22.4572 188.021 21.9479L182.188 17.7104C180.621 16.5716 181.427 14.0924 183.364 14.0924H190.573C191.44 14.0924 192.208 13.5345 192.475 12.7105L194.703 5.8541Z" fill="#FFB82F"/>
</svg>
